# xmcd CD database file
#
# Track frame offsets:
#	150
#	11897
#	24564
#	36606
#	50924
#	62679
#	76694
#	88802
#	99479
#	111016
#	124713
#	137544
#	151856
#	164016
#	177243
#	187779
#	202875
#
# Disc length: 2895 seconds
#
# Revision: 0
# Processed by: cddbd v1.5.2PL0 Copyright (c) Steve Scherf et al.
# Submitted via: CDex 1.70beta2
#
DISCID=de0b4d11
DTITLE=Ray Charles - The Genius At His Best CD02
DYEAR=1900
DGENRE=Blues
TTITLE0=See See Rider
TTITLE1=I've Had My Fun (Going Down Slow)
TTITLE2=I'll Do Anything But Work
TTITLE3=Someday
TTITLE4=What Have I Done
TTITLE5=Late In The Evening
TTITLE6=Honey, Honey
TTITLE7=Th' Ego Song
TTITLE8=She's On The Ball
TTITLE9=Baby Let Me Hold Your Hand
TTITLE10=Lonely Boy
TTITLE11=Walkin' And Talkin'
TTITLE12=I'm Glad For Your Sake
TTITLE13=Baby Won't You Please Come Home
TTITLE14=Hey Now
TTITLE15=I'm Wonderin' And Wonderin'
TTITLE16=Kiss-A Me Baby
EXTD=
EXTT0=
EXTT1=
EXTT2=
EXTT3=
EXTT4=
EXTT5=
EXTT6=
EXTT7=
EXTT8=
EXTT9=
EXTT10=
EXTT11=
EXTT12=
EXTT13=
EXTT14=
EXTT15=
EXTT16=
PLAYORDER=
